<svg width="280" height="280" viewBox="0 0 280 280" fill="none" xmlns="http://www.w3.org/2000/svg">
<rect width="280" height="280" rx="8" fill="white"/>
<rect x="139.443" y="8" width="185.969" height="185.969" rx="2" transform="rotate(44.9755 139.443 8)" fill="#5895CD"/>
<path d="M186.16 186.344C194.769 184.864 199.242 184.686 203.827 190.622L197.132 222.051C188.454 220.859 183.585 219.846 174.815 211.45L186.16 186.344Z" fill="#9DE258" stroke="black" stroke-width="0.371938"/>
<path d="M194.081 199.92C193.579 200.762 193.12 201.634 192.712 202.524C189.633 209.239 189.41 217.012 194.899 220.935C199.568 224.27 203.826 224.468 210.335 218.703C216.844 212.938 220.191 190.994 216.844 190.436C213.496 189.878 212.333 193.559 207.917 197.689C208.457 193.563 206.244 188.39 204.57 188.39C202.896 188.39 201.222 191.745 200.107 196.015C199.005 193.166 195.017 187.374 193.04 188.39C191.711 189.074 191.826 195.4 194.081 199.92Z" fill="#F7D198"/>
<path d="M193.04 188.39C195.017 187.374 199.005 193.166 200.107 196.015C201.222 191.745 202.896 188.39 204.57 188.39C206.244 188.39 208.457 193.563 207.917 197.689C212.333 193.559 213.496 189.878 216.844 190.436C220.191 190.994 216.844 212.938 210.335 218.703C203.826 224.468 199.568 224.27 194.899 220.935C189.41 217.012 189.633 209.239 192.712 202.524C193.12 201.634 193.579 200.762 194.081 199.92C191.826 195.4 191.711 189.074 193.04 188.39ZM193.04 188.39C191.062 189.407 192.282 202.917 198.991 204.384" stroke="black" stroke-width="0.371938"/>
<path d="M167.004 129.624C168.33 135.153 167.757 136.886 166.075 139.294C180.31 155.511 186.345 166.632 190.25 186.345C191.18 196.201 187.258 204.165 179.65 215.542C175.365 217.759 172.963 217.924 168.678 215.542C151.851 183.106 138.82 165.75 137.993 129.624H167.004Z" fill="#F7D198" stroke="black" stroke-width="0.371938"/>
<path d="M48.9135 199.904L57.2821 199.171L53.5627 190.436L48.9135 199.904Z" fill="white"/>
<path d="M70.6719 197.997L66.3946 190.436L63.0472 198.665L70.6719 197.997Z" fill="white"/>
<path d="M84.8055 196.759C86.1476 194.586 87.4749 192.484 88.7882 190.436L77.3668 183.555V197.411L84.8055 196.759Z" fill="white"/>
<path d="M97.6374 176.997L88.153 170.909L92.292 185.043C94.0984 182.294 95.8793 179.626 97.6374 176.997Z" fill="white"/>
<path d="M109.181 159.379L97.6374 158.077L103.953 167.505C105.715 164.824 107.457 162.131 109.181 159.379Z" fill="white"/>
<path d="M123.115 134.273C120.148 129.063 117.758 124.913 115.428 120.697L105.82 127.02L121.936 136.691C122.329 135.895 122.723 135.089 123.115 134.273Z" fill="white"/>
<path d="M105.82 102.1C105.143 101.077 104.521 100.086 103.953 99.125L93.1742 113.259L111.915 114.188C110.078 110.695 108.123 106.834 105.82 102.1Z" fill="white"/>
<path d="M101.435 79.4122L86.2933 86.2931L101.435 94.2175C99.1037 88.7168 99.0317 84.1094 101.435 79.4122Z" fill="white"/>
<path d="M113.817 66.0225C115.17 59.3484 117.135 54.4905 120.884 51.3619L103.402 49.0993L110.469 68.838C111.507 67.9245 112.623 66.9876 113.817 66.0225Z" fill="white"/>
<path d="M134.848 47.0851L126.835 37.0113L124.567 49.0993C127.271 47.9061 130.632 47.2397 134.848 47.0851Z" fill="white"/>
<path d="M156.404 49.0993L153.428 30.3164L138.923 47.0851C143.738 47.2412 149.495 47.9178 156.404 49.0993Z" fill="white"/>
<path d="M111.915 154.933C114.401 150.812 116.853 146.514 119.279 141.898L102.659 140.596L111.915 154.933Z" fill="white"/>
<path d="M48.7275 199.92L57.2821 199.171M138.923 47.0851C143.738 47.2412 149.495 47.9178 156.404 49.0993L153.428 30.3164L138.923 47.0851ZM138.923 47.0851C137.482 47.0384 136.126 47.0383 134.848 47.0851M134.848 47.0851L126.835 37.0113L124.567 49.0993M134.848 47.0851C130.632 47.2397 127.271 47.9061 124.567 49.0993M124.567 49.0993C123.175 49.7133 121.956 50.4668 120.884 51.3619M120.884 51.3619C117.135 54.4905 115.17 59.3484 113.817 66.0225C112.623 66.9876 111.507 67.9245 110.469 68.838M120.884 51.3619L103.402 49.0993L110.469 68.838M110.469 68.838C106.139 72.6483 103.154 76.0532 101.435 79.4122M101.435 79.4122L86.2933 86.2931L101.435 94.2175M101.435 79.4122C99.0317 84.1094 99.1037 88.7168 101.435 94.2175M101.435 94.2175C102.095 95.7744 102.936 97.4027 103.953 99.125M103.953 99.125C104.521 100.086 105.143 101.077 105.82 102.1C108.123 106.834 110.078 110.695 111.915 114.188M103.953 99.125L93.1742 113.259L111.915 114.188M111.915 114.188C113.114 116.468 114.264 118.591 115.428 120.697M115.428 120.697C117.758 124.913 120.148 129.063 123.115 134.273C122.723 135.089 122.329 135.895 121.936 136.691M115.428 120.697L105.82 127.02L121.936 136.691M121.936 136.691C121.053 138.474 120.168 140.207 119.279 141.898M111.915 154.933C111.008 156.436 110.097 157.916 109.181 159.379M111.915 154.933C114.401 150.812 116.853 146.514 119.279 141.898M111.915 154.933L102.659 140.596L119.279 141.898M109.181 159.379L97.6374 158.077L103.953 167.505M109.181 159.379C107.457 162.131 105.715 164.824 103.953 167.505M103.953 167.505C101.878 170.661 99.7747 173.8 97.6374 176.997M97.6374 176.997L88.153 170.909L92.292 185.043M97.6374 176.997C95.8793 179.626 94.0984 182.294 92.292 185.043M92.292 185.043C91.1348 186.804 89.9671 188.598 88.7882 190.436M88.7882 190.436C87.4749 192.484 86.1476 194.586 84.8055 196.759L77.3668 197.411M88.7882 190.436L77.3668 183.555V197.411M77.3668 197.411L70.6719 197.997M70.6719 197.997L66.3946 190.436L63.0472 198.665M70.6719 197.997L63.0472 198.665M63.0472 198.665L57.2821 199.171M57.2821 199.171L53.5627 190.436L48.9135 199.904L57.2821 199.171Z" stroke="black" stroke-width="0.371938"/>
<path d="M166.075 139.294C158.37 142.861 153.117 143.38 142.271 142.27M175.187 150.453C164.335 151.192 158.424 152.654 148.222 157.333M183.37 164.214C172.525 163.977 166.271 164.835 155.474 168.678M188.019 177.232C177.536 176.514 171.5 177.239 160.495 180.208M175.187 194.155C178.274 194.584 187.093 192.858 190.251 191.738M174.071 204.012C175.953 205.523 186.473 203.005 187.647 201.594M174.815 211.822C178.512 212.32 180.316 212.019 182.998 210.335" stroke="black" stroke-width="0.371938"/>
<path d="M158.264 46.3095C130.401 41.2304 118.719 43.2666 111.214 63.4186C95.9737 76.6229 94.0695 85.5062 101.543 103.774C105.603 111.294 109.078 116.153 112.077 118.837C116.068 125.498 117.773 130.733 117.537 136.69C106.148 167.005 88.5253 189.878 75.5075 193.969C62.4897 198.06 44.6787 198.41 34.7803 184.113C37.96 205.543 48.581 218.09 66.2091 222.422C88.1534 227.815 107.376 222.859 120.326 216.099C137.063 223.724 145.758 222.835 160.867 220.191L147.292 187.274L164.215 197.316C161.474 180.521 158.842 171.04 145.246 153.614C142.443 145.268 141.79 140.584 140.969 132.227C168.975 135.249 182.024 129.363 203.268 113.072L209.963 107.307C210.99 103.77 212.823 100.164 212.009 95.5913C210.025 84.447 199.272 76.0441 185.415 84.0612C177.181 72.7307 180.1 63.6322 178.162 54.1202C176.225 44.6081 169.638 41.7468 158.264 46.3095Z" fill="#9DE258"/>
<path d="M111.214 63.4186C118.719 43.2666 130.401 41.2304 158.264 46.3095C169.638 41.7468 176.225 44.6081 178.162 54.1202C180.1 63.6322 177.181 72.7307 185.415 84.0612M111.214 63.4186C95.9737 76.6229 94.0695 85.5062 101.543 103.774C105.603 111.294 109.078 116.153 112.077 118.837M111.214 63.4186C108.694 73.2082 108.989 77.5255 111.214 84.0612M120.326 216.099C107.376 222.859 88.1534 227.815 66.2091 222.422C48.581 218.09 37.96 205.543 34.7803 184.113C44.6787 198.41 62.4897 198.06 75.5075 193.969C88.5253 189.878 106.148 167.005 117.537 136.69C117.773 130.733 116.068 125.498 112.077 118.837M120.326 216.099C137.063 223.724 145.758 222.835 160.867 220.191L147.292 187.274M120.326 216.099C114.085 213.878 111.165 209.03 107.68 204.569M147.292 187.274L164.215 197.316C161.474 180.521 158.842 171.04 145.246 153.614M147.292 187.274C133.912 180.25 126.198 181.476 112.329 186.344M147.292 187.274C136.353 181.455 131.7 175.412 125.905 159.937M140.969 132.227C168.975 135.249 182.024 129.363 203.268 113.072L209.963 107.307C210.99 103.77 212.823 100.164 212.009 95.5913C210.025 84.447 199.272 76.0441 185.415 84.0612M140.969 132.227C141.79 140.584 142.443 145.268 145.246 153.614M140.969 132.227C137.706 131.653 136.066 131.294 134.646 130.368M185.415 84.0612C183.309 85.782 181.92 87.2939 180.804 89.0824M145.246 153.614C143.035 152.082 141.777 151.493 139.481 151.196M178.162 94.8474C179.036 92.48 179.812 90.672 180.804 89.0824M180.804 89.0824C174.876 89.3806 171.702 87.9236 166.26 82.9454M126.649 127.02C121.231 125.398 118.129 124.116 112.077 118.837" stroke="black" stroke-width="0.371938"/>
<path d="M130.183 103.99L134.46 113.445L139.295 106.686C136.519 106.131 133.527 105.238 130.183 103.99Z" fill="white"/>
<path d="M149.895 107.091L155.474 113.445L157.334 105.084C154.79 106.065 152.357 106.739 149.895 107.091Z" fill="white"/>
<path d="M163.099 102.472C162.405 102.826 161.807 102.983 162.913 102.472L164.773 109.891L168.12 104.556C166.51 103.904 164.839 103.209 163.099 102.472Z" fill="white"/>
<path d="M175.001 107.203L176.489 114.374L181.51 109.314C179.447 108.731 177.287 108.025 175.001 107.203Z" fill="white"/>
<path d="M188.763 110.896L191.924 119.024L194.9 111.287C192.902 111.332 190.871 111.198 188.763 110.896Z" fill="white"/>
<path d="M209.777 107.494C207.674 108.497 205.642 109.292 203.64 109.891L207.918 116.792L209.777 107.494Z" fill="white"/>
<path d="M124.604 101.729C126.573 102.582 128.427 103.335 130.183 103.99M130.183 103.99L134.46 113.445L139.295 106.686M130.183 103.99C133.527 105.238 136.519 106.131 139.295 106.686M139.295 106.686C143.119 107.45 146.534 107.571 149.895 107.091M149.895 107.091L155.474 113.445L157.334 105.084M149.895 107.091C152.357 106.739 154.79 106.065 157.334 105.084M157.334 105.084C158.544 104.618 161.638 103.075 162.913 102.472M162.913 102.472C161.807 102.983 162.405 102.826 163.099 102.472C164.839 103.209 166.51 103.904 168.12 104.556M162.913 102.472L164.773 109.891L168.12 104.556M168.12 104.556C170.545 105.538 172.83 106.423 175.001 107.203M175.001 107.203L176.489 114.374L181.51 109.314M175.001 107.203C177.287 108.025 179.447 108.731 181.51 109.314M181.51 109.314C184.056 110.033 186.455 110.565 188.763 110.896M188.763 110.896L191.924 119.024L194.9 111.287M188.763 110.896C190.871 111.198 192.902 111.332 194.9 111.287M194.9 111.287C197.841 111.22 200.71 110.767 203.64 109.891M203.64 109.891C205.642 109.292 207.674 108.497 209.777 107.494L207.918 116.792L203.64 109.891Z" stroke="black" stroke-width="0.371938"/>
<path d="M173.126 201.871C175.766 206.555 175.153 211.554 173.833 215.17C172.984 217.497 171.842 219.251 171.085 219.98C168.812 222.17 162.415 224.102 155.469 217.59C148.523 211.078 145.498 188.155 147.944 187.342C150.391 186.528 152.322 188.569 156.79 192.992C156.244 188.574 160.743 184.113 162.436 184.113C164.13 184.113 164.508 190.236 165.636 194.808C166.751 191.757 173.908 187.248 174.645 190.706C175.167 193.154 175.428 198.438 173.126 201.871Z" fill="#F7D198"/>
<path d="M174.645 190.706C173.908 187.248 166.751 191.757 165.636 194.808C164.508 190.236 164.13 184.113 162.436 184.113C160.743 184.113 156.244 188.574 156.79 192.992C152.322 188.569 150.391 186.528 147.944 187.342C145.498 188.155 148.523 211.078 155.469 217.59C162.415 224.102 168.812 222.17 171.085 219.98C171.842 219.251 172.984 217.497 173.833 215.17C175.153 211.554 175.766 206.555 173.126 201.871C175.428 198.438 175.167 193.154 174.645 190.706ZM174.645 190.706C175.382 194.164 175.599 203.274 168.812 204.845" stroke="black" stroke-width="0.371938"/>
<path d="M157.706 67.6958C157.706 76.0195 151.124 82.7593 143.014 82.7593C134.905 82.7593 128.323 76.0195 128.323 67.6958C128.323 59.3721 134.905 52.6323 143.014 52.6323C151.124 52.6323 157.706 59.3721 157.706 67.6958Z" fill="white" stroke="black" stroke-width="0.371938"/>
<path d="M138.482 82.029C132.588 80.0712 128.323 74.396 128.323 67.6958C128.323 59.3721 134.905 52.6323 143.014 52.6323C149.875 52.6323 155.642 57.4553 157.256 63.9814C156.999 65.3207 156.744 66.278 155.873 66.9833C154.981 67.7047 153.413 68.1866 150.437 68.4403L150.287 68.4531L150.269 68.6023C149.618 73.7515 147.825 76.3215 145.139 77.1638C143.785 77.5888 142.18 77.583 140.339 77.2196C138.498 76.8563 136.432 76.138 134.162 75.15L133.712 74.9542L133.919 75.399C135.302 78.3695 136.436 79.8714 138.482 82.029Z" fill="black" stroke="black" stroke-width="0.371938"/>
<path d="M181.51 69.928C181.51 73.4893 180.499 76.7055 178.874 79.0263C177.249 81.3478 175.022 82.7599 172.583 82.7599C170.144 82.7599 167.917 81.3478 166.292 79.0263C164.667 76.7055 163.657 73.4893 163.657 69.928C163.657 66.3667 164.667 63.1505 166.292 60.8296C167.917 58.5082 170.144 57.0961 172.583 57.0961C175.022 57.0961 177.249 58.5082 178.874 60.8296C180.499 63.1505 181.51 66.3667 181.51 69.928Z" fill="white" stroke="black" stroke-width="0.371938"/>
<path d="M169.296 81.6862C165.821 79.9565 163.285 75.2041 163.285 69.5559C163.285 65.9946 164.295 62.7784 165.92 60.4576C167.545 58.1361 169.772 56.7241 172.211 56.7241C176.336 56.7241 179.87 60.7822 180.862 66.3845C180.704 67.5366 180.547 68.353 180.019 68.9478C179.491 69.5431 178.559 69.9495 176.745 70.165L176.596 70.1828L176.582 70.3329C176.383 72.5322 176.008 74.1828 175.478 75.3709C174.949 76.5567 174.272 77.2698 173.472 77.6195C172.67 77.97 171.714 77.969 170.6 77.6625C169.485 77.3558 168.228 76.7476 166.84 75.9058L166.407 75.6429L166.567 76.1238C167.399 78.6129 168.084 79.8952 169.296 81.6862Z" fill="black" stroke="black" stroke-width="0.371938"/>
<path d="M155.477 63.7596C155.593 64.2642 155.348 64.8195 154.82 65.3126C154.294 65.8038 153.5 66.2186 152.562 66.4345C151.624 66.6505 150.729 66.6247 150.041 66.4131C149.351 66.2006 148.888 65.8082 148.771 65.3037C148.655 64.7991 148.9 64.2438 149.428 63.7507C149.954 63.2595 150.748 62.8447 151.686 62.6288C152.624 62.4128 153.519 62.4386 154.207 62.6503C154.897 62.8627 155.361 63.2551 155.477 63.7596Z" fill="white" stroke="black" stroke-width="0.185969"/>
<path d="M179.349 65.7746C179.491 66.1075 179.392 66.5243 179.08 66.9388C178.771 67.351 178.261 67.7441 177.623 68.0148C176.986 68.2856 176.349 68.379 175.837 68.3156C175.323 68.2518 174.954 68.0335 174.813 67.7006C174.671 67.3676 174.77 66.9508 175.082 66.5364C175.392 66.1242 175.901 65.731 176.539 65.4603C177.177 65.1896 177.813 65.0961 178.325 65.1595C178.84 65.2233 179.208 65.4416 179.349 65.7746Z" fill="white" stroke="black" stroke-width="0.185969"/>
<path d="M209.547 211.254C208.647 213.942 207.205 216.156 205.612 217.565C204.014 218.978 202.296 219.558 200.818 219.063C199.341 218.569 198.318 217.071 197.892 214.981C197.468 212.897 197.651 210.261 198.55 207.573C199.45 204.885 200.891 202.671 202.485 201.262C204.083 199.849 205.801 199.27 207.279 199.764C208.756 200.259 209.779 201.756 210.204 203.846C210.629 205.931 210.446 208.566 209.547 211.254Z" fill="#FFE7C4" stroke="black" stroke-width="0.371938"/>
<path d="M156.893 209.766C157.793 212.454 159.234 214.668 160.827 216.078C162.425 217.49 164.144 218.07 165.621 217.575C167.098 217.081 168.122 215.584 168.547 213.493C168.971 211.409 168.789 208.773 167.889 206.085C166.989 203.397 165.548 201.183 163.955 199.774C162.357 198.361 160.638 197.782 159.161 198.277C157.684 198.771 156.66 200.268 156.235 202.358C155.811 204.443 155.993 207.078 156.893 209.766Z" fill="#FFE7C4" stroke="black" stroke-width="0.371938"/>
</svg>
