<svg width="280" height="280" viewBox="0 0 280 280" fill="none" xmlns="http://www.w3.org/2000/svg">
<rect width="280" height="280" rx="8" fill="white"/>
<g opacity="0.88">
<ellipse cx="139.5" cy="140.709" rx="101.5" ry="101.722" fill="#FFEA2D"/>
<ellipse cx="139.722" cy="140.709" rx="77.291" ry="77.7352" fill="#EEFF2D" fill-opacity="0.82"/>
</g>
<path d="M175.881 196.312C184.067 189.472 186.737 185.654 187.465 179.706C188.193 173.757 176.889 166.195 170.611 155.416C170.611 155.416 161.753 145.997 163.736 160.621C165.719 175.244 175.489 182.094 175.881 196.312Z" fill="#FF95BB" stroke="black" stroke-width="0.444201"/>
<path d="M125.07 222.089C119.497 231.565 114.412 243.405 117.138 248.858C119.865 254.311 139.693 260.508 143.411 258.029C145.152 256.868 145.426 255.11 145.224 253.568L149.112 245.636C152.818 245.703 153.578 244.657 153.574 241.67C151.169 238.927 149.344 237.626 146.138 236.706C144.931 234.664 145.042 232.484 146.633 230.021C140.237 223.255 135.697 221.018 125.07 222.089Z" fill="#FF95BB"/>
<path d="M129.283 237.209C137.605 240.716 141.013 243.494 144.155 250.345C144.155 250.345 144.996 251.817 145.224 253.568M149.112 245.636C152.818 245.703 153.578 244.657 153.574 241.67C151.169 238.927 149.344 237.626 146.138 236.706M149.112 245.636L145.224 253.568M149.112 245.636C148.439 241.168 146.178 239.711 140.189 238.2M144.155 236.217C144.874 236.372 145.531 236.532 146.138 236.706M145.224 253.568C145.426 255.11 145.152 256.868 143.411 258.029C139.693 260.508 119.865 254.311 117.138 248.858C114.412 243.405 119.497 231.565 125.07 222.089C135.697 221.018 140.237 223.255 146.633 230.021C145.042 232.484 144.931 234.664 146.138 236.706" stroke="black" stroke-width="0.444201"/>
<path d="M170.676 213.167C178.827 224.248 187.283 238.2 186.787 242.91C186.292 247.619 181.337 253.205 174.642 257.781C169.682 260.27 164.584 261.998 160.019 262.644C153.466 263.571 148.012 262.268 145.643 257.781C144.651 252.021 146.14 249.677 149.113 245.636C153.191 241.345 155.869 239.561 161.01 236.961C158.596 233.812 158.074 231.576 158.531 226.799L170.676 213.167Z" fill="#FF95BB"/>
<path d="M174.642 257.781C181.337 253.205 186.292 247.619 186.787 242.91C187.283 238.2 178.827 224.248 170.676 213.167L158.531 226.799C158.074 231.576 158.596 233.812 161.01 236.961M174.642 257.781C169.682 260.27 164.584 261.998 160.019 262.644M174.642 257.781C166.106 253.823 165.74 250.289 168.694 242.91M161.01 236.961C155.869 239.561 153.191 241.345 149.113 245.636C146.14 249.677 144.651 252.021 145.643 257.781C148.012 262.268 153.466 263.571 160.019 262.644M161.01 236.961C164.7 234.946 166.816 234.23 170.676 233.739M160.019 262.644C154.362 258.219 153.346 254.849 156.301 246.875" stroke="black" stroke-width="0.444201"/>
<path d="M119.121 159.381C117.54 165.996 117.066 168.35 111.685 174.5C106.305 180.651 106.232 182.184 106.232 186.893C106.232 191.603 115.155 200.773 115.155 200.773L127.548 163.099C125.2 160.054 123.278 159.369 119.121 159.381Z" fill="#FF95BB" stroke="black" stroke-width="0.444201"/>
<path d="M124.326 161.86C124.86 168.887 120.36 176.979 115.899 187.141C111.437 197.304 114.43 210.48 124.822 222.833C137.303 232.392 144.735 232.656 158.53 226.799C164.487 222.393 167.023 219.42 170.428 213.414C173.463 207.274 174.889 204.491 175.881 195.816C176.872 187.141 165.633 174.42 163.735 160.62C161.838 146.821 124.326 161.86 124.326 161.86Z" fill="#FFBED5" stroke="black" stroke-width="0.444201"/>
<path d="M140.933 82.7928C140.537 47.4866 173.403 16.8623 204.137 15.1273C234.872 13.3923 239.581 29.751 226.692 42.1439C213.804 54.5369 198.849 56.6173 177.616 62.9641C158.108 70.3165 151.638 74.9896 149.856 84.5278L140.933 82.7928Z" fill="#FF95BB" stroke="black" stroke-width="0.444201"/>
<path d="M141.924 83.041C108.463 58.2551 103.506 38.1785 86.1558 39.17C68.8056 40.1615 60.3785 50.0758 62.8571 60.238C65.3357 70.4002 71.2843 71.3917 86.8994 74.8617C102.515 78.3317 117.988 76.7377 129.035 84.5282C129.035 84.5282 175.385 107.827 141.924 83.041Z" fill="#FF95BB" stroke="black" stroke-width="0.444201"/>
<path d="M155.087 178.287C161.197 182.481 165.024 201.571 160.584 208.029C156.145 214.487 138.174 215.167 130.774 208.029C123.375 200.891 133.657 182.703 138.174 178.287C141.653 175.596 149.426 174.402 155.087 178.287Z" fill="#FFF0F0" stroke="black" stroke-width="0.444201"/>
<path d="M140.936 81.8013C115.688 81.8013 97.8664 101.755 101.827 127.196C105.787 152.637 118.411 163.362 140.936 165.357C163.461 167.353 178.561 155.879 179.551 127.196C180.541 98.5125 166.184 81.8013 140.936 81.8013Z" fill="#FF95BB" stroke="black" stroke-width="0.444201"/>
<path d="M142.419 138.809C131.64 138.898 125.813 145.997 126.804 149.715C127.796 153.433 129.778 155.862 134.24 156.159C138.701 156.457 142.359 155.1 144.898 152.937C148.778 153.793 153.821 152.937 156.299 151.698C158.778 150.458 161.009 147.484 159.769 143.27C158.53 139.057 152.98 136.575 142.419 138.809Z" fill="#FBEEF0" stroke="black" stroke-width="0.444201"/>
<path d="M153.938 140.08C154.029 140.666 153.85 141.282 153.414 141.904C152.978 142.528 152.291 143.145 151.397 143.717C149.607 144.862 147.021 145.804 144.063 146.261C141.104 146.719 138.354 146.601 136.303 146.051C135.277 145.775 134.437 145.394 133.832 144.932C133.229 144.47 132.872 143.936 132.781 143.35C132.691 142.764 132.87 142.147 133.306 141.525C133.742 140.902 134.428 140.285 135.323 139.712C137.112 138.568 139.699 137.626 142.657 137.168C145.616 136.711 148.366 136.828 150.417 137.379C151.443 137.654 152.283 138.035 152.888 138.498C153.491 138.96 153.848 139.493 153.938 140.08Z" fill="#010101" stroke="black" stroke-width="0.444201"/>
<path d="M121.848 130.629C119.755 129.006 117.294 129.565 117.386 131.621C117.478 133.677 120.439 134.883 123.087 135.339C124.876 133.179 126.557 131.621 126.309 129.638C126.061 127.655 122.902 127.564 121.848 130.629Z" fill="black" stroke="black" stroke-width="0.444201"/>
<path d="M154.801 124.935C153.511 122.611 150.501 122.318 150.302 124.119C150.103 125.92 152.333 128.894 154.068 130.134C156.565 128.823 158.749 127.69 159.299 125.75C159.85 123.811 156.975 122.497 154.801 124.935Z" fill="black" stroke="black" stroke-width="0.444201"/>
<path d="M160.412 94.7745C159.743 92.9772 158.387 93.026 157.713 93.8456C157.038 94.6653 157.223 95.1926 158.157 96.955C159.09 98.7175 158.379 99.6202 158.601 100.287C158.823 100.064 159.395 98.4038 161.044 97.8434C162.694 97.2831 162.954 96.3125 163.043 95.6224C163.132 94.9324 162.227 93.2707 160.412 94.7745Z" fill="white" stroke="black" stroke-width="0.444201"/>
<path d="M154.375 126.962C154.065 126.354 153.184 126.254 153.261 126.821C153.337 127.387 153.725 127.921 154.175 128.295C154.801 127.894 155.342 127.641 155.488 127.104C155.635 126.568 154.927 126.262 154.375 126.962Z" fill="white" stroke="white" stroke-width="0.222101"/>
<path d="M122.341 131.548C121.761 131.095 121.08 131.251 121.105 131.824C121.131 132.397 121.951 132.733 122.684 132.86C123.179 132.258 123.645 131.824 123.576 131.271C123.508 130.718 122.633 130.693 122.341 131.548Z" fill="white" stroke="white" stroke-width="0.222101"/>
<path d="M111.933 118.733C115.621 113.979 118.413 113.025 124.326 113.528M149.855 109.562C155.955 108.435 158.694 109.514 162.744 113.528" stroke="black" stroke-width="0.444201"/>
<circle cx="124.326" cy="129.638" r="0.632527" fill="white" stroke="black" stroke-width="0.222101"/>
<circle cx="157.539" cy="125.672" r="0.632527" fill="white" stroke="black" stroke-width="0.222101"/>
<path d="M186.539 34.2127C170.458 40.2132 161.919 50.304 149.815 69.0319C158.18 57.1069 177.221 49.3989 193.727 45.8621C211.077 42.1443 203.145 28.0162 186.539 34.2127Z" fill="#FBEEF0"/>
<path d="M149.815 69.0319C161.919 50.304 170.458 40.2132 186.539 34.2127C203.145 28.0162 211.077 42.1443 193.727 45.8621C177.221 49.3989 158.18 57.1069 149.815 69.0319ZM149.815 69.0319C149.387 69.6422 148.987 70.2635 148.616 70.8958C149.02 70.2652 149.419 69.6439 149.815 69.0319Z" stroke="black" stroke-width="0.444201"/>
<path d="M126.959 76.9488C114.308 66.1821 104.13 57.6839 93.5916 55.5284C82.6858 53.2976 76.4893 62.4684 85.1644 64.4513C93.5708 66.3728 112.882 65.511 126.959 76.9488Z" fill="#FBEEF0"/>
<path d="M126.959 76.9488C114.308 66.1821 104.13 57.6839 93.5916 55.5284C82.6858 53.2976 76.4893 62.4684 85.1644 64.4513C93.5708 66.3728 112.882 65.511 126.959 76.9488ZM126.959 76.9488C127.409 77.3143 127.853 77.6924 128.292 78.0836C127.844 77.7026 127.4 77.3243 126.959 76.9488Z" stroke="black" stroke-width="0.444201"/>
</svg>
