<svg id="star3-svg" width="1183" height="573" viewBox="0 0 1183 573" fill="none" xmlns="http://www.w3.org/2000/svg">
            <path  fill="none" stroke="black" stroke-width="1" data-name="Exclusion 8" id="frontendor-path" d="M0 570.658H398.5M398.5 570.658V555.158H402V546.658L406 543.158V523.658L402 518.158H406V486.158L404.5 484.658H406L409 395.658L407 392.158V388.158H409V382.658L404.5 379.658V376.658L402 374.658V372.658H408.5V367.158H411V320.158L407 313.158H411.5V208.158L388.5 171.658V167.158L385 161.658H412.5V123.658H421.5V92.6582H457V47.1582H460.5V22.6582V18.6582H466.5V22.6582H533V11.1582H538V5.65816H544.5V10.6582H555V5.65816H561V10.6582H572C609.681 -1.32825 629.257 -0.594505 662 11.1582H679V5.65816H685.5V10.6582H692V5.65816H697.5V10.6582H703V22.6582H766V18.6582H775V22.6582V47.1582H778.5V92.6582H815V123.658H823.5V161.658H851.5L846.5 166.658V170.658L823.5 208.158V313.158H829.5L825.5 320.158V367.158H829.5V372.658H835.5V374.658L832.5 376.658V379.658L829.5 382.658V387.158H832.5V392.158L829.5 395.658V484.658H832L830 487.158V517.158H834L830 521.158V541.158L834 546.658V555.158H838V570.658H1183M398.5 570.658H552V314.158H554.5V310.658H558V305.658H552C559.046 262.312 573.862 247.982 618.5 239.158C663.41 249.548 680.843 261.747 685 305.658H680V310.658H683V314.158H686V570.658H834" stroke="black" stroke-width="3"/>
</svg>
